<svg xmlns="http://www.w3.org/2000/svg" viewBox="0 0 900 540" width="900" height="540" font-family="Segoe UI, Noto Sans KR, Helvetica, Arial, sans-serif" role="img" aria-label="dashboard 화면 와이어프레임">
  <rect x="0" y="0" width="900" height="540" rx="0" fill="#f8f3eb" />
  <rect x="0" y="0" width="150" height="540" rx="0" fill="#ece6dc" />
  <text x="18" y="34" font-size="14" fill="#302b28" font-weight="bold" text-anchor="start">냥토큰</text>
  <text x="18" y="52" font-size="14" fill="#302b28" font-weight="bold" text-anchor="start">트래커</text>
  <rect x="10" y="70" width="130" height="30" rx="9" fill="#efe6d5" />
  <text x="30" y="89" font-size="11" fill="#8a6f3d" font-weight="bold" text-anchor="start">대시보드</text>
  <circle cx="22" cy="84" r="3" fill="#8a6f3d" opacity="1" />
  <text x="30" y="127" font-size="11" fill="#8a8078" font-weight="normal" text-anchor="start">AI 사용량</text>
  <circle cx="22" cy="122" r="3" fill="#8a8078" opacity="0.45" />
  <text x="30" y="165" font-size="11" fill="#8a8078" font-weight="normal" text-anchor="start">프로젝트</text>
  <circle cx="22" cy="160" r="3" fill="#8a8078" opacity="0.45" />
  <text x="30" y="203" font-size="11" fill="#8a8078" font-weight="normal" text-anchor="start">동기화</text>
  <circle cx="22" cy="198" r="3" fill="#8a8078" opacity="0.45" />
  <text x="30" y="241" font-size="11" fill="#8a8078" font-weight="normal" text-anchor="start">알림</text>
  <circle cx="22" cy="236" r="3" fill="#8a8078" opacity="0.45" />
  <text x="30" y="279" font-size="11" fill="#8a8078" font-weight="normal" text-anchor="start">설정</text>
  <circle cx="22" cy="274" r="3" fill="#8a8078" opacity="0.45" />
  <text x="172" y="40" font-size="17" fill="#302b28" font-weight="bold" text-anchor="start">대시보드</text>
  <text x="172" y="58" font-size="9.5" fill="#8a8078" font-weight="normal" text-anchor="start">로컬 관측과 서버 흐름을 한 화면에서</text>
  <rect x="820" y="30" width="58" height="20" rx="10" fill="#f4eee5" /><text x="849.0" y="44" font-size="9" fill="#8a8078" font-weight="normal" text-anchor="middle">지금 동기화</text>
  <rect x="744" y="30" width="68" height="20" rx="10" fill="#efe6d5" /><text x="778.0" y="44" font-size="9" fill="#8a6f3d" font-weight="normal" text-anchor="middle">기간: 이번 달</text>
  <rect x="172.0" y="76" width="167.5" height="84" rx="12" fill="#fffdf9" stroke="#ddd4c8" />
  <text x="184.0" y="96" font-size="9" fill="#8a8078" font-weight="normal" text-anchor="start">이번 달 총 토큰</text>
  <text x="184.0" y="122" font-size="19" fill="#302b28" font-weight="bold" text-anchor="start">319.6M</text>
  <text x="184.0" y="142" font-size="8" fill="#8a8078" font-weight="normal" text-anchor="start">로컬 관측</text>
  <rect x="277.5" y="121.33333333333333" width="5.833333333333333" height="8.666666666666666" rx="2" fill="#302b28" />
  <rect x="286.3333333333333" y="115.55555555555556" width="5.833333333333333" height="14.444444444444445" rx="2" fill="#302b28" />
  <rect x="295.1666666666667" y="118.44444444444444" width="5.833333333333333" height="11.555555555555555" rx="2" fill="#302b28" />
  <rect x="304.0" y="109.77777777777777" width="5.833333333333333" height="20.22222222222222" rx="2" fill="#302b28" />
  <rect x="312.8333333333333" y="112.66666666666667" width="5.833333333333333" height="17.333333333333332" rx="2" fill="#302b28" />
  <rect x="321.66666666666663" y="104.0" width="5.833333333333333" height="26.0" rx="2" fill="#302b28" />
  <rect x="351.5" y="76" width="167.5" height="84" rx="12" fill="#fffdf9" stroke="#ddd4c8" />
  <text x="363.5" y="96" font-size="9" fill="#8a8078" font-weight="normal" text-anchor="start">캐시 적중</text>
  <text x="363.5" y="122" font-size="19" fill="#6f9f8b" font-weight="bold" text-anchor="start">96%</text>
  <text x="363.5" y="142" font-size="8" fill="#8a8078" font-weight="normal" text-anchor="start">306.7M cached</text>
  <rect x="457.0" y="121.33333333333333" width="5.833333333333333" height="8.666666666666666" rx="2" fill="#6f9f8b" />
  <rect x="465.8333333333333" y="115.55555555555556" width="5.833333333333333" height="14.444444444444445" rx="2" fill="#6f9f8b" />
  <rect x="474.6666666666667" y="118.44444444444444" width="5.833333333333333" height="11.555555555555555" rx="2" fill="#6f9f8b" />
  <rect x="483.5" y="109.77777777777777" width="5.833333333333333" height="20.22222222222222" rx="2" fill="#6f9f8b" />
  <rect x="492.3333333333333" y="112.66666666666667" width="5.833333333333333" height="17.333333333333332" rx="2" fill="#6f9f8b" />
  <rect x="501.16666666666663" y="104.0" width="5.833333333333333" height="26.0" rx="2" fill="#6f9f8b" />
  <rect x="531.0" y="76" width="167.5" height="84" rx="12" fill="#fffdf9" stroke="#ddd4c8" />
  <text x="543.0" y="96" font-size="9" fill="#8a8078" font-weight="normal" text-anchor="start">서버 주간 한도</text>
  <text x="543.0" y="122" font-size="19" fill="#c9824f" font-weight="bold" text-anchor="start">99%</text>
  <text x="543.0" y="142" font-size="8" fill="#8a8078" font-weight="normal" text-anchor="start">서버 관측 · 6분 전</text>
  <rect x="636.5" y="121.33333333333333" width="5.833333333333333" height="8.666666666666666" rx="2" fill="#c9824f" />
  <rect x="645.3333333333334" y="115.55555555555556" width="5.833333333333333" height="14.444444444444445" rx="2" fill="#c9824f" />
  <rect x="654.1666666666666" y="118.44444444444444" width="5.833333333333333" height="11.555555555555555" rx="2" fill="#c9824f" />
  <rect x="663.0" y="109.77777777777777" width="5.833333333333333" height="20.22222222222222" rx="2" fill="#c9824f" />
  <rect x="671.8333333333334" y="112.66666666666667" width="5.833333333333333" height="17.333333333333332" rx="2" fill="#c9824f" />
  <rect x="680.6666666666666" y="104.0" width="5.833333333333333" height="26.0" rx="2" fill="#c9824f" />
  <rect x="710.5" y="76" width="167.5" height="84" rx="12" fill="#fffdf9" stroke="#ddd4c8" />
  <text x="722.5" y="96" font-size="9" fill="#8a8078" font-weight="normal" text-anchor="start">수집 중 AI</text>
  <text x="722.5" y="122" font-size="19" fill="#8876a8" font-weight="bold" text-anchor="start">Codex</text>
  <text x="722.5" y="142" font-size="8" fill="#8a8078" font-weight="normal" text-anchor="start">705개 세션 파일</text>
  <rect x="816.0" y="121.33333333333333" width="5.833333333333333" height="8.666666666666666" rx="2" fill="#8876a8" />
  <rect x="824.8333333333334" y="115.55555555555556" width="5.833333333333333" height="14.444444444444445" rx="2" fill="#8876a8" />
  <rect x="833.6666666666666" y="118.44444444444444" width="5.833333333333333" height="11.555555555555555" rx="2" fill="#8876a8" />
  <rect x="842.5" y="109.77777777777777" width="5.833333333333333" height="20.22222222222222" rx="2" fill="#8876a8" />
  <rect x="851.3333333333334" y="112.66666666666667" width="5.833333333333333" height="17.333333333333332" rx="2" fill="#8876a8" />
  <rect x="860.1666666666666" y="104.0" width="5.833333333333333" height="26.0" rx="2" fill="#8876a8" />
  <rect x="172" y="172" width="409.47999999999996" height="168" rx="12" fill="#fffdf9" stroke="#ddd4c8" />
  <text x="186" y="194" font-size="12" fill="#302b28" font-weight="bold" text-anchor="start">provider별 사용량</text>
  <text x="186" y="210" font-size="8" fill="#8a8078" font-weight="normal" text-anchor="start">측정 품질 배지와 함께 표시</text>
  <text x="186" y="240" font-size="9.5" fill="#302b28" font-weight="normal" text-anchor="start">Codex</text>
  <rect x="238" y="228" width="199.47999999999996" height="16" rx="4" fill="#e8e0d3" />
  <rect x="238" y="228" width="189.50599999999994" height="16" rx="4" fill="#8a6f3d" />
  <text x="511.48" y="240" font-size="9" fill="#302b28" font-weight="normal" text-anchor="end">319.6M</text>
  <rect x="521.48" y="226" width="46" height="20" rx="10" fill="#e4efe9" /><text x="544.48" y="240" font-size="9" fill="#6f9f8b" font-weight="normal" text-anchor="middle">로컬 관측</text>
  <text x="186" y="267" font-size="9.5" fill="#302b28" font-weight="normal" text-anchor="start">Claude</text>
  <rect x="238" y="255" width="199.47999999999996" height="16" rx="4" fill="#e8e0d3" />
  <rect x="238" y="255" width="83.78159999999998" height="16" rx="4" fill="#c9824f" />
  <text x="511.48" y="267" font-size="9" fill="#302b28" font-weight="normal" text-anchor="end">—</text>
  <rect x="521.48" y="253" width="46" height="20" rx="10" fill="#f4eee5" /><text x="544.48" y="267" font-size="9" fill="#8a8078" font-weight="normal" text-anchor="middle">미확인</text>
  <text x="186" y="294" font-size="9.5" fill="#302b28" font-weight="normal" text-anchor="start">Cursor</text>
  <rect x="238" y="282" width="199.47999999999996" height="16" rx="4" fill="#e8e0d3" />
  <text x="511.48" y="294" font-size="9" fill="#302b28" font-weight="normal" text-anchor="end">—</text>
  <rect x="521.48" y="280" width="46" height="20" rx="10" fill="#f4eee5" /><text x="544.48" y="294" font-size="9" fill="#8a8078" font-weight="normal" text-anchor="middle">미연결</text>
  <text x="186" y="321" font-size="9.5" fill="#302b28" font-weight="normal" text-anchor="start">Gemini</text>
  <rect x="238" y="309" width="199.47999999999996" height="16" rx="4" fill="#e8e0d3" />
  <text x="511.48" y="321" font-size="9" fill="#302b28" font-weight="normal" text-anchor="end">—</text>
  <rect x="521.48" y="307" width="46" height="20" rx="10" fill="#f4eee5" /><text x="544.48" y="321" font-size="9" fill="#8a8078" font-weight="normal" text-anchor="middle">미연결</text>
  <rect x="593.48" y="172" width="284.52" height="168" rx="12" fill="#fffdf9" stroke="#ddd4c8" />
  <text x="607.48" y="194" font-size="12" fill="#302b28" font-weight="bold" text-anchor="start">서버 한도</text>
  <text x="607.48" y="226" font-size="9" fill="#8a8078" font-weight="normal" text-anchor="start">5시간 창</text>
  <text x="864.0" y="226" font-size="11" fill="#6f9f8b" font-weight="bold" text-anchor="end">31%</text>
  <rect x="607.48" y="234" width="256.52" height="8" rx="4" fill="#e8e0d3" />
  <rect x="607.48" y="234" width="79.5212" height="8" rx="4" fill="#6f9f8b" />
  <text x="607.48" y="256" font-size="8" fill="#8a8078" font-weight="normal" text-anchor="start">리셋까지 2일 4시간</text>
  <text x="607.48" y="278" font-size="9" fill="#8a8078" font-weight="normal" text-anchor="start">주간 창</text>
  <text x="864.0" y="278" font-size="11" fill="#c9824f" font-weight="bold" text-anchor="end">99%</text>
  <rect x="607.48" y="286" width="256.52" height="8" rx="4" fill="#e8e0d3" />
  <rect x="607.48" y="286" width="253.95479999999998" height="8" rx="4" fill="#c9824f" />
  <text x="607.48" y="308" font-size="8" fill="#8a8078" font-weight="normal" text-anchor="start">리셋까지 2일 4시간</text>
  <rect x="593.48" y="322" width="284.52" height="18" rx="6" fill="#fffdf9" stroke="#ddd4c8" />
  <text x="603.48" y="335" font-size="8.5" fill="#8a6f3d" font-weight="normal" text-anchor="start">미확인 서버 사용량 3건 →</text>
  <rect x="172" y="352" width="706" height="166" rx="12" fill="#fffdf9" stroke="#ddd4c8" />
  <text x="186" y="374" font-size="12" fill="#302b28" font-weight="bold" text-anchor="start">프로젝트</text>
  <text x="864" y="374" font-size="8.5" fill="#8a6f3d" font-weight="normal" text-anchor="end">전체 보기 →</text>
  <text x="186.0" y="392" font-size="8" fill="#8a8078" font-weight="normal" text-anchor="start">프로젝트</text>
  <text x="355.5" y="392" font-size="8" fill="#8a8078" font-weight="normal" text-anchor="start">AI</text>
  <text x="525.0" y="392" font-size="8" fill="#8a8078" font-weight="normal" text-anchor="start">토큰</text>
  <text x="694.5" y="392" font-size="8" fill="#8a8078" font-weight="normal" text-anchor="start">세션</text>
  <line x1="186" y1="404" x2="864" y2="404" stroke="#ddd4c8" stroke-dasharray="3 3" />
  <text x="186.0" y="421" font-size="9" fill="#302b28" font-weight="normal" text-anchor="start">luna-playground</text>
  <text x="355.5" y="421" font-size="9" fill="#8a8078" font-weight="normal" text-anchor="start">Codex</text>
  <text x="525.0" y="421" font-size="9" fill="#8a8078" font-weight="normal" text-anchor="start">181.2M</text>
  <text x="694.5" y="421" font-size="9" fill="#8a8078" font-weight="normal" text-anchor="start">412</text>
  <line x1="186" y1="430" x2="864" y2="430" stroke="#ddd4c8" stroke-dasharray="3 3" />
  <text x="186.0" y="447" font-size="9" fill="#302b28" font-weight="normal" text-anchor="start">mes-portal</text>
  <text x="355.5" y="447" font-size="9" fill="#8a8078" font-weight="normal" text-anchor="start">Codex</text>
  <text x="525.0" y="447" font-size="9" fill="#8a8078" font-weight="normal" text-anchor="start">74.5M</text>
  <text x="694.5" y="447" font-size="9" fill="#8a8078" font-weight="normal" text-anchor="start">190</text>
  <line x1="186" y1="456" x2="864" y2="456" stroke="#ddd4c8" stroke-dasharray="3 3" />
  <text x="186.0" y="473" font-size="9" fill="#302b28" font-weight="normal" text-anchor="start">nyang-docs</text>
  <text x="355.5" y="473" font-size="9" fill="#8a8078" font-weight="normal" text-anchor="start">Codex</text>
  <text x="525.0" y="473" font-size="9" fill="#8a8078" font-weight="normal" text-anchor="start">38.1M</text>
  <text x="694.5" y="473" font-size="9" fill="#8a8078" font-weight="normal" text-anchor="start">96</text>
  <line x1="186" y1="482" x2="864" y2="482" stroke="#ddd4c8" stroke-dasharray="3 3" />
  <text x="186.0" y="499" font-size="9" fill="#302b28" font-weight="normal" text-anchor="start">agent-lab</text>
  <text x="355.5" y="499" font-size="9" fill="#8a8078" font-weight="normal" text-anchor="start">Codex</text>
  <text x="525.0" y="499" font-size="9" fill="#8a8078" font-weight="normal" text-anchor="start">25.8M</text>
  <text x="694.5" y="499" font-size="9" fill="#8a8078" font-weight="normal" text-anchor="start">61</text>
  <!-- 냥 스킨 장식 (블랙냥 팔레트, src/CatArt.jsx 포즈) -->
  <g aria-hidden="true" transform="translate(98 22) scale(1)"><ellipse cx="5.5" cy="4" rx="3.5" ry="4" fill="#5f4a29"/><ellipse cx="13.5" cy="2" rx="3.5" ry="4" fill="#5f4a29"/><ellipse cx="21.5" cy="6" rx="3.5" ry="4" fill="#5f4a29"/><ellipse cx="14.5" cy="16.5" rx="7.5" ry="6.5" fill="#5f4a29"/></g>
  <g aria-hidden="true" transform="translate(7 305) scale(0.72)"><ellipse fill="#00000022" cx="93" cy="281" rx="68" ry="17"/><path fill="#2d2d2c" stroke="#4a3c34" stroke-width="1" d="M62 113q-21 45-15 112 4 49 29 56 29 8 56 0 23-7 17-59-7-61-26-108Z"/><path fill="#e8dfd1" d="M78 143q26-16 46 0 13 58 4 118-25 14-50 0-13-58 0-118Z"/><path fill="#171818" d="M57 124q18-23 38-18l-3 44q-23 10-35-26Z"/><path fill="#5b5148" d="M114 121q24 11 30 40l-25 8q-16-24-5-48Z"/><g transform="translate(48 45)"><g transform="translate(2 1) scale(1 1)"><path fill="#2d2d2c" d="M0 18 7 0 22 21Z"/><path fill="#c99888" d="M5 16 8 6 16 17Z"/></g><g transform="translate(88 1) scale(-1 1)"><path fill="#2d2d2c" d="M0 18 7 0 22 21Z"/><path fill="#c99888" d="M5 16 8 6 16 17Z"/></g><ellipse fill="#2d2d2c" cx="45" cy="53" rx="47" ry="42"/><path fill="#171818" d="M2 31q21-25 44-12L34 52Q12 55 2 31Z"/><path fill="#5b5148" d="M55 17q27 9 35 32l-29 6q-14-16-6-38Z"/><ellipse fill="#f1e8da" cx="45" cy="64" rx="22" ry="15"/><g transform="translate(12 38) scale(1)"><path fill="none" stroke="#d0a654" stroke-width="3" stroke-linecap="round" d="M12 18q4 3 8 0"/><path fill="none" stroke="#d0a654" stroke-width="3" stroke-linecap="round" d="M42 18q4 3 8 0"/><path fill="#4a3c34" d="m31 27 5 0-2.5 4Z"/><path fill="none" stroke="#4a3c34" stroke-width="2" stroke-linecap="round" d="M33.5 31v5m0 0q-5 5-10 0m10 0q5 5 10 0"/><path fill="none" stroke="#4a3c34" stroke-width="2" stroke-linecap="round" d="M22 31 3 27m19 9L1 37m44-6 19-4m-19 9 21 1"/></g></g><path fill="none" stroke="#4a3c34" stroke-width="2" stroke-linecap="round" d="M142 218q33 0 28 33-4 29-39 30"/><path fill="none" stroke="#4a3c34" stroke-width="2" stroke-linecap="round" d="M72 270v-77m44 77v-78"/></g>
  <g aria-hidden="true" transform="translate(430 8) scale(0.42)"><path fill="#00000022" d="M34 104q106 18 246 2 31-3 27 8-123 17-273 3-23-3 0-13Z"/><path fill="#2d2d2c" stroke="#4a3c34" stroke-width="1" d="M111 49q68-32 136 11 29 19 53 21 19 2 22 14-7 18-45 5-25-8-42-11-35 24-105 13-45-7-66-30 14-20 47-23Z"/><path fill="#e8dfd1" d="M119 69q52-22 111 8-22 28-79 25-32-2-51-17Z"/><path fill="#171818" d="M170 48q26-13 51 0l-14 28q-28 9-37-28Z"/><path fill="#5b5148" d="M226 55q31 7 51 30l-28 13q-28-18-23-43Z"/><g transform="translate(70 19)"><g transform="translate(5 4) scale(1 1)"><path fill="#2d2d2c" d="M0 18 7 0 22 21Z"/><path fill="#c99888" d="M5 16 8 6 16 17Z"/></g><g transform="translate(76 4) scale(-1 1)"><path fill="#2d2d2c" d="M0 18 7 0 22 21Z"/><path fill="#c99888" d="M5 16 8 6 16 17Z"/></g><ellipse fill="#2d2d2c" cx="41" cy="50" rx="42" ry="37"/><path fill="#171818" d="M3 33q18-22 39-13L31 47Q12 52 3 33Z"/><ellipse fill="#f1e8da" cx="42" cy="59" rx="20" ry="14"/><g transform="translate(9 33) scale(1)"><path fill="none" stroke="#d0a654" stroke-width="3" stroke-linecap="round" d="M12 18q4 3 8 0"/><path fill="none" stroke="#d0a654" stroke-width="3" stroke-linecap="round" d="M42 18q4 3 8 0"/><path fill="#4a3c34" d="m31 27 5 0-2.5 4Z"/><path fill="none" stroke="#4a3c34" stroke-width="2" stroke-linecap="round" d="M33.5 31v5m0 0q-5 5-10 0m10 0q5 5 10 0"/><path fill="none" stroke="#4a3c34" stroke-width="2" stroke-linecap="round" d="M22 31 3 27m19 9L1 37m44-6 19-4m-19 9 21 1"/></g></g><path fill="none" stroke="#4a3c34" stroke-width="2" stroke-linecap="round" d="M260 83q35-8 55 6 18 13 4 25-17 15-42-7"/><ellipse fill="#2d2d2c" stroke="#4a3c34" stroke-width="1" cx="122" cy="101" rx="28" ry="9"/><ellipse fill="#2d2d2c" stroke="#4a3c34" stroke-width="1" cx="167" cy="104" rx="27" ry="8"/></g>
  <g aria-hidden="true" transform="translate(720 428) scale(0.52)"><ellipse fill="#00000022" cx="142" cy="132" rx="104" ry="17"/><path fill="#2d2d2c" stroke="#4a3c34" stroke-width="1" d="M57 105q10-68 85-75 72-7 101 49 22 42-29 57-66 20-122-1-34-13-35-30Z"/><path fill="#171818" d="M118 31q38-11 65 8l-18 40q-32 2-47-48Z"/><path fill="#5b5148" d="M184 42q35 15 48 43l-35 15q-18-25-13-58Z"/><path fill="none" stroke="#4a3c34" stroke-width="2" stroke-linecap="round" d="M219 91q37-23 44 3 8 30-49 35-42 4-75-16"/><g transform="translate(54 65)"><g transform="translate(7 2) scale(1 1)"><path fill="#2d2d2c" d="M0 18 7 0 22 21Z"/><path fill="#c99888" d="M5 16 8 6 16 17Z"/></g><g transform="translate(75 2) scale(-1 1)"><path fill="#2d2d2c" d="M0 18 7 0 22 21Z"/><path fill="#c99888" d="M5 16 8 6 16 17Z"/></g><ellipse fill="#2d2d2c" cx="42" cy="45" rx="42" ry="35"/><path fill="#5b5148" d="M4 28q20-18 40-8L31 48Q11 51 4 28Z"/><ellipse fill="#f1e8da" cx="42" cy="55" rx="19" ry="13"/><g transform="translate(9 29) scale(1)"><path fill="none" stroke="#d0a654" stroke-width="3" stroke-linecap="round" d="M12 18q4 3 8 0"/><path fill="none" stroke="#d0a654" stroke-width="3" stroke-linecap="round" d="M42 18q4 3 8 0"/><path fill="#4a3c34" d="m31 27 5 0-2.5 4Z"/><path fill="none" stroke="#4a3c34" stroke-width="2" stroke-linecap="round" d="M33.5 31v5m0 0q-5 5-10 0m10 0q5 5 10 0"/><path fill="none" stroke="#4a3c34" stroke-width="2" stroke-linecap="round" d="M22 31 3 27m19 9L1 37m44-6 19-4m-19 9 21 1"/></g></g></g>
</svg>
