<svg xmlns="http://www.w3.org/2000/svg" viewBox="0 0 900 540" width="900" height="540" font-family="Segoe UI, Noto Sans KR, Helvetica, Arial, sans-serif" role="img" aria-label="project 화면 와이어프레임">
  <rect x="0" y="0" width="900" height="540" rx="0" fill="#f8f3eb" />
  <rect x="0" y="0" width="150" height="540" rx="0" fill="#ece6dc" />
  <text x="18" y="34" font-size="14" fill="#302b28" font-weight="bold" text-anchor="start">냥토큰</text>
  <text x="18" y="52" font-size="14" fill="#302b28" font-weight="bold" text-anchor="start">트래커</text>
  <text x="30" y="89" font-size="11" fill="#8a8078" font-weight="normal" text-anchor="start">대시보드</text>
  <circle cx="22" cy="84" r="3" fill="#8a8078" opacity="0.45" />
  <text x="30" y="127" font-size="11" fill="#8a8078" font-weight="normal" text-anchor="start">AI 사용량</text>
  <circle cx="22" cy="122" r="3" fill="#8a8078" opacity="0.45" />
  <rect x="10" y="146" width="130" height="30" rx="9" fill="#efe6d5" />
  <text x="30" y="165" font-size="11" fill="#8a6f3d" font-weight="bold" text-anchor="start">프로젝트</text>
  <circle cx="22" cy="160" r="3" fill="#8a6f3d" opacity="1" />
  <text x="30" y="203" font-size="11" fill="#8a8078" font-weight="normal" text-anchor="start">동기화</text>
  <circle cx="22" cy="198" r="3" fill="#8a8078" opacity="0.45" />
  <text x="30" y="241" font-size="11" fill="#8a8078" font-weight="normal" text-anchor="start">알림</text>
  <circle cx="22" cy="236" r="3" fill="#8a8078" opacity="0.45" />
  <text x="30" y="279" font-size="11" fill="#8a8078" font-weight="normal" text-anchor="start">설정</text>
  <circle cx="22" cy="274" r="3" fill="#8a8078" opacity="0.45" />
  <text x="172" y="40" font-size="17" fill="#302b28" font-weight="bold" text-anchor="start">프로젝트</text>
  <text x="172" y="58" font-size="9.5" fill="#8a8078" font-weight="normal" text-anchor="start">cwd 기준 귀속과 경로 가림</text>
  <rect x="820" y="30" width="58" height="20" rx="10" fill="#f4eee5" /><text x="849.0" y="44" font-size="9" fill="#8a8078" font-weight="normal" text-anchor="middle">별칭 편집</text>
  <rect x="754" y="30" width="58" height="20" rx="10" fill="#efe6d5" /><text x="783.0" y="44" font-size="9" fill="#8a6f3d" font-weight="normal" text-anchor="middle">경로 가림</text>
  <rect x="172" y="76" width="240.04000000000002" height="442" rx="12" fill="#fffdf9" stroke="#ddd4c8" />
  <rect x="186" y="92" width="212.04000000000002" height="26" rx="8" fill="#f4eee5" />
  <text x="196" y="109" font-size="9" fill="#8a8078" font-weight="normal" text-anchor="start">프로젝트 검색</text>
  <rect x="182" y="130" width="220.04000000000002" height="38" rx="9" fill="#efe6d5" />
  <text x="194" y="147" font-size="9.5" fill="#8a6f3d" font-weight="bold" text-anchor="start">luna-playground</text>
  <text x="194" y="161" font-size="8" fill="#8a8078" font-weight="normal" text-anchor="start">181.2M · Codex</text>
  <text x="194" y="191" font-size="9.5" fill="#302b28" font-weight="normal" text-anchor="start">mes-portal</text>
  <text x="194" y="205" font-size="8" fill="#8a8078" font-weight="normal" text-anchor="start">74.5M · Codex</text>
  <text x="194" y="235" font-size="9.5" fill="#302b28" font-weight="normal" text-anchor="start">nyang-docs</text>
  <text x="194" y="249" font-size="8" fill="#8a8078" font-weight="normal" text-anchor="start">38.1M · Codex</text>
  <text x="194" y="279" font-size="9.5" fill="#302b28" font-weight="normal" text-anchor="start">agent-lab</text>
  <text x="194" y="293" font-size="8" fill="#8a8078" font-weight="normal" text-anchor="start">25.8M · Codex</text>
  <text x="194" y="323" font-size="9.5" fill="#302b28" font-weight="normal" text-anchor="start">sql-skill</text>
  <text x="194" y="337" font-size="8" fill="#8a8078" font-weight="normal" text-anchor="start">11.2M · Codex</text>
  <text x="194" y="367" font-size="9.5" fill="#302b28" font-weight="normal" text-anchor="start">(가림) project_hash a1b2</text>
  <text x="194" y="381" font-size="8" fill="#8a8078" font-weight="normal" text-anchor="start">4.6M · Codex</text>
  <rect x="424.04" y="76" width="453.96" height="120" rx="12" fill="#fffdf9" stroke="#ddd4c8" />
  <text x="438.04" y="98" font-size="13" fill="#302b28" font-weight="bold" text-anchor="start">luna-playground</text>
  <text x="438.04" y="114" font-size="8" fill="#8a8078" font-weight="normal" text-anchor="start">D:/git/node/luna-playground</text>
  <rect x="782.0" y="88" width="82" height="20" rx="10" fill="#f4eee5" /><text x="823.0" y="102" font-size="9" fill="#8a8078" font-weight="normal" text-anchor="middle">가림 안 함</text>
  <text x="438.04" y="148" font-size="8" fill="#8a8078" font-weight="normal" text-anchor="start">총 토큰</text>
  <text x="438.04" y="170" font-size="14" fill="#302b28" font-weight="bold" text-anchor="start">181.2M</text>
  <text x="544.53" y="148" font-size="8" fill="#8a8078" font-weight="normal" text-anchor="start">세션</text>
  <text x="544.53" y="170" font-size="14" fill="#6f9f8b" font-weight="bold" text-anchor="start">412</text>
  <text x="651.02" y="148" font-size="8" fill="#8a8078" font-weight="normal" text-anchor="start">모델</text>
  <text x="651.02" y="170" font-size="14" fill="#8876a8" font-weight="bold" text-anchor="start">3종</text>
  <text x="757.51" y="148" font-size="8" fill="#8a8078" font-weight="normal" text-anchor="start">최근</text>
  <text x="757.51" y="170" font-size="14" fill="#c9824f" font-weight="bold" text-anchor="start">4분 전</text>
  <rect x="424.04" y="208" width="453.96" height="150" rx="12" fill="#fffdf9" stroke="#ddd4c8" />
  <text x="438.04" y="230" font-size="12" fill="#302b28" font-weight="bold" text-anchor="start">모델 분포</text>
  <text x="438.04" y="260" font-size="9" fill="#302b28" font-weight="normal" text-anchor="start">gpt-5-codex</text>
  <text x="864.0" y="260" font-size="9" fill="#8a8078" font-weight="normal" text-anchor="end">130.4M</text>
  <rect x="438.04" y="266" width="425.96" height="7" rx="4" fill="#e8e0d3" />
  <rect x="438.04" y="266" width="306.6912" height="7" rx="4" fill="#8a6f3d" />
  <text x="438.04" y="294" font-size="9" fill="#302b28" font-weight="normal" text-anchor="start">gpt-5</text>
  <text x="864.0" y="294" font-size="9" fill="#8a8078" font-weight="normal" text-anchor="end">38.1M</text>
  <rect x="438.04" y="300" width="425.96" height="7" rx="4" fill="#e8e0d3" />
  <rect x="438.04" y="300" width="89.4516" height="7" rx="4" fill="#6f9f8b" />
  <text x="438.04" y="328" font-size="9" fill="#302b28" font-weight="normal" text-anchor="start">o4-mini</text>
  <text x="864.0" y="328" font-size="9" fill="#8a8078" font-weight="normal" text-anchor="end">12.7M</text>
  <rect x="438.04" y="334" width="425.96" height="7" rx="4" fill="#e8e0d3" />
  <rect x="438.04" y="334" width="29.8172" height="7" rx="4" fill="#789aae" />
  <rect x="424.04" y="370" width="453.96" height="148" rx="12" fill="#fffdf9" stroke="#ddd4c8" />
  <text x="438.04" y="392" font-size="12" fill="#302b28" font-weight="bold" text-anchor="start">세션</text>
  <text x="864.0" y="392" font-size="8" fill="#8a8078" font-weight="normal" text-anchor="end">최근 20개</text>
  <text x="438.04" y="410" font-size="8" fill="#8a8078" font-weight="normal" text-anchor="start">세션</text>
  <text x="544.53" y="410" font-size="8" fill="#8a8078" font-weight="normal" text-anchor="start">모델</text>
  <text x="651.02" y="410" font-size="8" fill="#8a8078" font-weight="normal" text-anchor="start">토큰</text>
  <text x="757.51" y="410" font-size="8" fill="#8a8078" font-weight="normal" text-anchor="start">시각</text>
  <line x1="438.04" y1="422" x2="864.0" y2="422" stroke="#ddd4c8" stroke-dasharray="3 3" />
  <text x="438.04" y="441" font-size="8.5" fill="#302b28" font-weight="normal" text-anchor="start">019a…c4f1</text>
  <text x="544.53" y="441" font-size="8.5" fill="#8a8078" font-weight="normal" text-anchor="start">gpt-5-codex</text>
  <text x="651.02" y="441" font-size="8.5" fill="#8a8078" font-weight="normal" text-anchor="start">4.2M</text>
  <text x="757.51" y="441" font-size="8.5" fill="#8a8078" font-weight="normal" text-anchor="start">4분 전</text>
  <line x1="438.04" y1="450" x2="864.0" y2="450" stroke="#ddd4c8" stroke-dasharray="3 3" />
  <text x="438.04" y="469" font-size="8.5" fill="#302b28" font-weight="normal" text-anchor="start">019a…9b02</text>
  <text x="544.53" y="469" font-size="8.5" fill="#8a8078" font-weight="normal" text-anchor="start">gpt-5-codex</text>
  <text x="651.02" y="469" font-size="8.5" fill="#8a8078" font-weight="normal" text-anchor="start">2.8M</text>
  <text x="757.51" y="469" font-size="8.5" fill="#8a8078" font-weight="normal" text-anchor="start">1시간 전</text>
  <line x1="438.04" y1="478" x2="864.0" y2="478" stroke="#ddd4c8" stroke-dasharray="3 3" />
  <text x="438.04" y="497" font-size="8.5" fill="#302b28" font-weight="normal" text-anchor="start">0199…77ad</text>
  <text x="544.53" y="497" font-size="8.5" fill="#8a8078" font-weight="normal" text-anchor="start">gpt-5-codex</text>
  <text x="651.02" y="497" font-size="8.5" fill="#8a8078" font-weight="normal" text-anchor="start">1.9M</text>
  <text x="757.51" y="497" font-size="8.5" fill="#8a8078" font-weight="normal" text-anchor="start">어제</text>
</svg>
